#!OML:ASF F:\VICON\USERDATA\INSTALL\Justin_Nancy\Justin_Nancy.ASF
:FULLY-SPECIFIED
:DEGREES
64
root -11.3571 16.4284 -11.1121 -1.98898 13.4393 1.13582
lowerback 16.8687 0.227856 -2.42806
upperback 4.57435 0.303169 6.34169
thorax -4.59329 0.18632 8.15895
lowerneck -17.3901 -1.41035 -5.74593
upperneck 13.287 -0.626809 0.877071
head 6.94094 -0.518776 1.14788
rclavicle 2.38542e-014 -1.00187e-013
rhumerus -47.7308 13.1937 -88.4324
rradius 112.771
rwrist 2.40571
rhand -27.8598 24.3307
rfingers 7.12502
rthumb -1.25053 -5.6454
lclavicle 2.38542e-014 -1.00187e-013
lhumerus -44.6587 -14.2433 100.704
lradius 109.907
lwrist 21.7987
lhand -17.8898 6.066
lfingers 7.12502
lthumb 8.37668 35.8799
rfemur -31.9076 9.04684 -4.25455
rtibia 38.4907
rfoot 1.65473 -3.11851
rtoes -14.3987
lfemur -28.4662 6.46134 -32.7619
ltibia 69.5014
lfoot 1.65085 -16.0912
ltoes -3.19604
65
root -11.3549 16.4784 -10.849 -2.09389 15.339 0.913906
lowerback 16.4475 -0.0163535 -2.44566
upperback 4.82485 -0.00918883 6.65407
thorax -4.04722 0.0121326 8.5642
lowerneck -17.0295 -1.59851 -5.99539
upperneck 13.0155 -0.878934 1.06664
head 6.8027 -0.631338 1.22288
rclavicle 2.06736e-014 -3.65764e-014
rhumerus -48.599 12.1796 -87.9893
rradius 112.9
rwrist 3.62977
rhand -29.8705 23.7303
rfingers 7.12502
rthumb -3.19235 -6.22554
lclavicle 2.06736e-014 -3.65764e-014
lhumerus -44.5708 -15.0839 100.93
lradius 109.5
lwrist 21.8696
lhand -17.9428 6.14982
lfingers 7.12502
lthumb 8.32551 35.9658
rfemur -29.8605 10.2318 -5.28538
rtibia 34.8828
rfoot 2.81169 -3.45733
rtoes -15.023
lfemur -28.4547 6.55661 -31.9095
ltibia 70.2176
lfoot 0.983915 -17.2742
ltoes -5.53007
66
root -11.3508 16.5276 -10.5739 -2.22198 18.3675 0.65784
lowerback 16.3205 -0.632561 -2.19362
upperback 4.74109 -0.758142 6.8522
thorax -3.94381 -0.358029 8.78093
lowerneck -17.1301 -1.84193 -6.41219
upperneck 13.5157 -1.18284 1.57768
head 6.999 -0.760276 1.42482
rclavicle -1.03368e-014 -8.5875e-014
rhumerus -49.4138 11.0249 -87.3732
rradius 113.785
rwrist 0.152571
rhand -28.1344 25.089
rfingers 7.12502
rthumb -1.51575 -4.88536
lclavicle -1.03368e-014 -8.5875e-014
lhumerus -44.9164 -15.8779 101.05
lradius 109.101
lwrist 21.9532
lhand -17.81 5.78717
lfingers 7.12502
lthumb 8.45372 35.598
rfemur -27.2902 10.8375 -6.16514
rtibia 32.0057
rfoot 3.67236 -4.86541
rtoes -13.7683
lfemur -28.4602 5.72508 -31.0447
ltibia 70.9596
lfoot -0.151165 -16.8164
ltoes -5.79026
67
root -11.3535 16.5362 -10.3119 -2.03144 19.7805 0.227723
lowerback 16.8424 -0.727341 -1.60718
upperback 4.07081 -0.751337 6.73225
thorax -4.95697 -0.309612 8.34192
lowerneck -17.747 -2.19315 -7.25799
upperneck 15.117 -1.61577 2.78107
head 7.6652 -0.921346 1.91451
rclavicle -9.14409e-015 1.74931e-014
rhumerus -50.7686 9.82247 -87.2117
rradius 114.802
rwrist -4.34107
rhand -25.0765 26.4246
rfingers 7.12502
rthumb 1.43764 -3.5503
lclavicle -9.14409e-015 1.74931e-014
lhumerus -46.2674 -16.6189 100.867
lradius 108.842
lwrist 21.6519
lhand -17.4533 5.66337
lfingers 7.12502
lthumb 8.79795 35.46
rfemur -26.2155 11.7173 -6.80542
rtibia 29.7342
rfoot 4.7763 -5.30168
rtoes -11.6121
lfemur -29.3385 6.27088 -30.1066
ltibia 71.7908
lfoot -1.55872 -14.673
ltoes -5.57054
68
root -11.353 16.5352 -10.0538 -1.7361 21.3324 -0.164511
lowerback 16.0114 -0.620734 -1.74014
upperback 4.09949 -0.618294 7.16782
thorax -4.49053 -0.253098 8.84518
lowerneck -17.4862 -2.51246 -7.51267
upperneck 15.1554 -2.02859 2.90286
head 7.65963 -1.12281 1.94885
rclavicle 6.2816e-014 -1.59028e-015
rhumerus -51.1629 8.72725 -86.0327
rradius 115.482
rwrist -6.8819
rhand -22.806 27.0682
rfingers 7.12502
rthumb 3.63048 -2.88062
lclavicle 6.2816e-014 -1.59028e-015
lhumerus -46.2755 -17.2076 101.258
lradius 108.419
lwrist 21.1563
lhand -16.9082 6.16237
lfingers 7.12502
lthumb 9.3239 35.9362
rfemur -25.2023 11.9871 -7.26503
rtibia 28.0598
rfoot 5.98356 -5.00318
rtoes -10.4117
lfemur -30.477 6.83846 -29.3224
ltibia 72.6196
lfoot -1.758 -10.507
ltoes -0.520412
69
root -11.3642 16.5523 -9.77631 -2.04377 24.4569 -0.488713
lowerback 16.1353 -1.16258 -1.69144
upperback 3.81861 -1.29441 7.2842
thorax -4.74348 -0.570264 9.09616
lowerneck -16.8494 -2.54196 -7.25852
upperneck 15.1198 -2.18654 2.91598
head 7.54338 -1.18535 1.89688
rclavicle -3.4191e-014 -1.59028e-014
rhumerus -52.3129 7.92117 -85.9263
rradius 115.589
rwrist -6.78138
rhand -22.2464 27.303
rfingers 7.12502
rthumb 4.17082 -2.63595
lclavicle -3.4191e-014 -1.59028e-014
lhumerus -47.0576 -17.5323 101.102
lradius 108.25
lwrist 20.8424
lhand -16.6537 6.59016
lfingers 7.12502
lthumb 9.56945 36.3528
rfemur -22.5457 11.9707 -7.36526
rtibia 26.919
rfoot 6.93682 -5.04113
rtoes -9.37394
lfemur -30.8055 6.47623 -28.4702
ltibia 73.2632
lfoot -2.6499 -7.56692
ltoes 2.32099
70
root -11.3754 16.5384 -9.51122 -2.17519 26.9055 -1.16399
lowerback 16.2253 -1.52242 -1.01601
upperback 3.42064 -1.6338 7.20901
thorax -5.18636 -0.720584 8.70031
lowerneck -17.1953 -2.86131 -7.58824
upperneck 15.9941 -2.68792 3.79042
head 7.93617 -1.36494 2.18576
rclavicle -2.94201e-014 2.54444e-014
rhumerus -53.4285 6.93265 -86.0201
rradius 115.621
rwrist -6.75014
rhand -21.0085 27.6295
rfingers 7.12502
rthumb 5.3661 -2.28252
lclavicle -2.94201e-014 2.54444e-014
lhumerus -47.8673 -17.9552 100.56
lradius 108.116
lwrist 20.2643
lhand -16.5074 7.26018
lfingers 7.12502
lthumb 9.71068 37.0163
rfemur -20.7959 12.1678 -7.16443
rtibia 26.2203
rfoot 7.85115 -4.63634
rtoes -8.6649
lfemur -31.9713 6.6732 -27.4069
ltibia 74.0466
lfoot -3.81497 -5.47167
ltoes 3.50396
71
root -11.389 16.5089 -9.2421 -2.38592 29.3759 -1.43885
lowerback 16.5641 -1.80365 -0.666676
upperback 3.08903 -1.93068 6.94736
thorax -5.70274 -0.849723 8.29782
lowerneck -17.4219 -3.07993 -7.5417
upperneck 16.8286 -3.09366 4.28003
head 8.28634 -1.50907 2.29749
rclavicle 2.38542e-014 -3.18055e-015
rhumerus -54.6437 5.73137 -86.2158
rradius 115.788
rwrist -6.55242
rhand -19.2897 28.0363
rfingers 7.12502
rthumb 7.0255 -1.82716
lclavicle 2.38542e-014 -3.18055e-015
lhumerus -48.5982 -18.3863 99.8902
lradius 107.901
lwrist 19.7993
lhand -16.762 8.1242
lfingers 7.12502
lthumb 9.465 37.8916
rfemur -18.777 12.4401 -7.17391
rtibia 25.8787
rfoot 8.43223 -4.13696
rtoes -8.38292
lfemur -32.926 6.92168 -26.7603
ltibia 74.7687
lfoot -5.05636 -3.91588
ltoes 5.2359
72
root -11.4037 16.4712 -8.97934 -2.85915 31.579 -2.20626
lowerback 16.6476 -1.93315 -0.16904
upperback 3.06411 -1.99811 6.97941
thorax -5.78247 -0.884309 8.06197
lowerneck -17.6366 -3.09464 -7.05172
upperneck 17.2835 -3.17122 3.96893
head 8.46884 -1.54585 2.10339
rclavicle -6.16232e-014 9.38264e-014
rhumerus -55.3512 4.63759 -86.1302
rradius 115.988
rwrist -6.49911
rhand -17.6249 28.1596
rfingers 7.12502
rthumb 8.63237 -1.64391
lclavicle -6.16232e-014 9.38264e-014
lhumerus -48.6672 -18.7158 99.2876
lradius 107.557
lwrist 19.6155
lhand -17.0493 7.97431
lfingers 7.12502
lthumb 9.18775 37.7542
rfemur -16.8358 12.2224 -6.46892
rtibia 25.8198
rfoot 7.55645 -3.63052
rtoes -15.3913
lfemur -34.1352 7.38474 -25.7541
ltibia 75.539
lfoot -6.44643 -3.05936
ltoes 9.57058
73
root -11.4286 16.4039 -8.71493 -3.52864 33.6986 -3.08029
lowerback 16.6439 -1.858 0.0892929
upperback 3.33366 -1.83406 7.24811
thorax -5.5126 -0.810979 8.16294
lowerneck -18.1874 -3.26546 -7.05543
upperneck 17.3087 -3.34181 3.86274
head 8.58341 -1.6318 2.04161
rclavicle -4.13472e-014 2.38542e-014
rhumerus -55.3109 3.76399 -85.5421
rradius 115.829
rwrist -6.57775
rhand -16.9493 28.6384
rfingers 7.12502
rthumb 9.28427 -1.13713
lclavicle -4.13472e-014 2.38542e-014
lhumerus -48.082 -19.0934 98.8313
lradius 107.003
lwrist 19.6423
lhand -16.9666 6.5539
lfingers 7.12502
lthumb 9.26753 36.3302
rfemur -14.8502 11.58 -5.49751
rtibia 26.1166
rfoot 5.42911 -4.12241
rtoes -22.2422
lfemur -35.4965 7.92694 -24.7369
ltibia 76.3063
lfoot -7.39721 -2.8511
ltoes 11.7484
